<?xml version="1.0" encoding="utf-8"?>
<!-- Generator: Adobe Illustrator 25.0.0, SVG Export Plug-In . SVG Version: 6.00 Build 0)  -->
<svg version="1.1" id="图层_1" xmlns="http://www.w3.org/2000/svg" xmlns:xlink="http://www.w3.org/1999/xlink" x="0px" y="0px"
	 viewBox="0 0 500 429" style="enable-background:new 0 0 500 429;" xml:space="preserve">
<style type="text/css">
	.st0{fill:#9D2C1A;}
	.st1{fill:none;stroke:#9D2C1A;stroke-width:6;stroke-miterlimit:10;}
</style>
<path class="st0" d="M305.3,98.6c4.6,3,9.2,6,13.9,9c8.7-9.1,15.8-15.1,18.2-15.8c1.8-0.6,3.3-0.3,3.3-0.3c1.2,0.2,2.1,0.8,2.6,1.2
	c-5.9,6.7-11.9,13.3-17.8,20c4.5,4.6,9,9.2,13.5,13.7c4.8-8.5,10.5-17.6,17.2-27c7.7-10.8,15.4-20.2,22.7-28.3
	c-2-0.3-4.9-0.6-8.6-0.7c-3,0-4.6-0.1-6.3,0.5c-2.9,0.9-4.4,2.6-7.6,5.9c-9,9.6-10.4,10.3-11.7,10.6c-3.2,0.9-3.7-0.7-9.7-1.3
	c-2.2-0.2-10.4-0.9-18.6,3.2C313.8,90.7,309.4,93.4,305.3,98.6z"/>
<circle class="st1" cx="243.4" cy="210.4" r="200.5"/>
<path class="st0" d="M282.8,127c-20.1,33.8-40.3,67.7-61.3,102.9c17.1,1.3,27.9-0.9,36-16.4c17.7-33.6,38.2-65.7,57.5-98.5
	c1.8,0.8,3.7,1.6,5.5,2.4c-16.7,28.5-33.3,57-50,85.5c21.3,4.6,25.5,2.7,34.5-13.8c8.9-16.4,18.2-32.6,28.3-50.6
	c13.1,22.3,19.8,40.9,8.5,64.8c-26.1,55.4-71,83.5-128.7,94c-11.2,2-23.9-0.4-35.2-3.6c-19.2-5.3-27.2-19.9-22.2-39.3
	c2.7-10.3,7.6-20,12.3-29.7c7.6-15.5,16.3-30.5,23.7-46.1c6.5-13.7,6.9-27.5-2.2-39.3c7.9,1.4,13.9,0,17.1-1c3-0.9,5.8-1.9,8.4-4.6
	c4-4.2,4.3-9.6,4.4-11.6c-7.1,5.7-17.7,12.3-30.5,11.8c-8.2-0.3-12.8-3.4-20.9-6.3c-9.3-3.3-23.2-6.3-42.6-4.2
	c3.2,2.3,5,3.7,6.9,4.9c6.5,4.1,13.5,7.6,19.5,12.3c16.8,13.3,20.3,28.1,13.3,48.2c-6.5,18.9-13.5,37.7-18.4,57
	c-6.9,27.2,0.2,44.9,25,58.1c46.5,24.8,93.9,22.3,141.1,0.8c3.1-1.4,6-3.3,9.5-4.2c-18.6,27.8-43.9,46.1-77,52.7
	c-57.6,11.5-111.7-15.9-139.9-70.3c-40.4-78-5.1-176.2,74.5-204.9c43.1-15.6,83.1-7.2,120.6,19.5c-4.3,10.6-8.9,18.5-21.6,19.5
	c-5.6,0.4-10.8,1.7-15.6,3.7c-10.1,4.2-19.3,13.2-25.8,22.7c-11.6,16.9-35.2,56.4-63.4,110.4c9.7,0.6,17.7,0.2,24.4-3.8
	c6.8-4.1,9.9-10.3,11-12.3c7.7-14.3,33.7-56.4,69.9-114.2C280.4,125.1,281.6,126,282.8,127z"/>
<path class="st0" d="M410,226.4c-14,24.5-35,44-65.3,56.9c3.2-9.2,5.6-16.4,8.2-23.4c2.9-7.8,7.5-29.8,4.5-80.6
	c-0.2-3.7-0.6-9.4-1.2-16.4c1-1.7,2-3.4,2.9-5.2c6.5,12.6,11.5,26.3,19.8,37.6C387.1,206.4,398.5,215.1,410,226.4z"/>
<path class="st0" d="M350,123.2c-1,3.2-2,7.3-2.4,12.1c-0.4,3.9-0.3,7.4,0,10.3c-2.1-3.1-4.2-6.3-6.3-9.4c1.5-1.9,3.1-4,4.7-6.3
	C347.5,127.5,348.9,125.3,350,123.2z"/>
</svg>
