<?xml version="1.0" standalone="no"?>
<svg xmlns="http://www.w3.org/2000/svg" viewBox="0 0 120 120">
  <rect x="20" y="20" width="80" height="80" opacity="0"></rect>
  <g transform="translate(20, 20)">
    <path d="M51.28 6.56Q50.24 6.24 49.36 6.72Q48.48 7.2 48.16 8.24Q47.84 9.28 48.32 10.16Q48.8 11.04 49.76 11.36L62.4 15.2Q51.36 18.56 45.64 25.24Q39.92 31.92 38.28 37.48Q36.64 43.04 36.64 45.36L36.64 45.36Q36.64 46.4 37.32 47.16Q38 47.92 39.04 47.92Q40.08 47.92 40.84 47.2Q41.6 46.48 41.6 45.52Q41.6 43.52 43.12 38.6Q44.64 33.68 49.96 27.96Q55.28 22.24 65.6 19.6L61.44 33.28Q61.12 34.24 61.6 35.16Q62.08 36.08 63.04 36.4Q63.92 36.64 64.92 36.2Q65.92 35.76 66.24 34.72L72 15.6Q72.32 14.56 71.84 13.64Q71.36 12.72 70.4 12.4L51.28 6.56Z" fill="rgba(157,44,26,1)"></path>
  </g>
  <g transform="translate(20, 20)">
    <path d="M40 74.08Q48.8 74.08 56.48 69.8Q64.16 65.52 68.92 58.12Q73.68 50.72 74.16 41.76Q74.24 40.72 73.52 39.96Q72.8 39.2 71.76 39.12Q70.72 39.04 69.96 39.72Q69.2 40.4 69.12 41.44Q68.8 48.88 64.88 55.16Q60.96 61.44 54.6 65.2Q48.24 68.96 40.8 69.12Q32.88 69.36 26.08 65.6Q19.28 61.84 15.16 55.24Q11.04 48.64 10.8 40.72Q10.64 33.04 14.12 26.44Q17.6 19.84 23.84 15.64Q30.08 11.44 37.76 10.88Q38.8 10.72 39.44 9.96Q40.08 9.2 40 8.16Q39.92 7.12 39.16 6.44Q38.4 5.76 37.36 5.84Q28.4 6.56 21.12 11.44Q13.84 16.32 9.72 24.12Q5.6 31.92 5.84 40.88Q6.08 50 10.76 57.6Q15.44 65.2 23.2 69.64Q30.96 74.08 40 74.08Z" fill="rgba(157,44,26,0.5)"></path>
  </g>
</svg>